<mxfile host="app.diagrams.net" modified="2024-03-31T21:29:03.130Z" agent="Mozilla/5.0 (Windows NT 10.0; Win64; x64) AppleWebKit/537.36 (KHTML, like Gecko) Chrome/123.0.0.0 Safari/537.36 Edg/123.0.0.0" etag="y-S4DECMqF-Jz6QEuRC7" version="24.2.1" type="device">
  <diagram name="Page-1" id="-WID34RPrZ3JBbDgbCxV">
    <mxGraphModel dx="1426" dy="751" grid="1" gridSize="10" guides="1" tooltips="1" connect="1" arrows="1" fold="1" page="1" pageScale="1" pageWidth="827" pageHeight="1169" math="0" shadow="0">
      <root>
        <mxCell id="0" />
        <mxCell id="1" parent="0" />
        <mxCell id="OuwZTAwvk_KHiBmIs3wN-275" value="" style="swimlane;startSize=0;fontFamily=Helvetica;fontSize=11;fontColor=default;labelBackgroundColor=default;" vertex="1" parent="1">
          <mxGeometry x="125" y="110" width="600" height="827.5" as="geometry">
            <mxRectangle x="125" y="110" width="50" height="40" as="alternateBounds" />
          </mxGeometry>
        </mxCell>
        <mxCell id="OuwZTAwvk_KHiBmIs3wN-307" style="rounded=0;orthogonalLoop=1;jettySize=auto;html=1;exitX=0.983;exitY=0.713;exitDx=0;exitDy=0;entryX=0;entryY=0.5;entryDx=0;entryDy=0;exitPerimeter=0;" edge="1" parent="OuwZTAwvk_KHiBmIs3wN-275" source="OuwZTAwvk_KHiBmIs3wN-310" target="OuwZTAwvk_KHiBmIs3wN-312">
          <mxGeometry relative="1" as="geometry" />
        </mxCell>
        <mxCell id="OuwZTAwvk_KHiBmIs3wN-308" style="edgeStyle=none;rounded=0;orthogonalLoop=1;jettySize=auto;html=1;entryX=0.5;entryY=0;entryDx=0;entryDy=0;strokeColor=default;align=center;verticalAlign=middle;fontFamily=Helvetica;fontSize=11;fontColor=default;labelBackgroundColor=default;endArrow=classic;" edge="1" parent="OuwZTAwvk_KHiBmIs3wN-275" target="OuwZTAwvk_KHiBmIs3wN-331">
          <mxGeometry relative="1" as="geometry">
            <mxPoint x="75" y="170" as="sourcePoint" />
          </mxGeometry>
        </mxCell>
        <mxCell id="OuwZTAwvk_KHiBmIs3wN-309" style="edgeStyle=none;rounded=0;orthogonalLoop=1;jettySize=auto;html=1;exitX=1;exitY=0;exitDx=0;exitDy=0;strokeColor=default;align=center;verticalAlign=middle;fontFamily=Helvetica;fontSize=11;fontColor=default;labelBackgroundColor=default;endArrow=classic;" edge="1" parent="OuwZTAwvk_KHiBmIs3wN-275" source="OuwZTAwvk_KHiBmIs3wN-310" target="OuwZTAwvk_KHiBmIs3wN-333">
          <mxGeometry relative="1" as="geometry" />
        </mxCell>
        <mxCell id="OuwZTAwvk_KHiBmIs3wN-310" value="Browser Items" style="ellipse;whiteSpace=wrap;html=1;" vertex="1" parent="OuwZTAwvk_KHiBmIs3wN-275">
          <mxGeometry x="10" y="127.5" width="110" height="45" as="geometry" />
        </mxCell>
        <mxCell id="OuwZTAwvk_KHiBmIs3wN-311" value="&amp;lt;&amp;lt;Extends&amp;gt;&amp;gt;" style="edgeStyle=none;rounded=0;orthogonalLoop=1;jettySize=auto;html=1;strokeColor=default;align=center;verticalAlign=middle;fontFamily=Helvetica;fontSize=11;fontColor=default;labelBackgroundColor=default;endArrow=classic;entryX=0.57;entryY=-0.067;entryDx=0;entryDy=0;entryPerimeter=0;dashed=1;" edge="1" parent="OuwZTAwvk_KHiBmIs3wN-275" target="OuwZTAwvk_KHiBmIs3wN-315">
          <mxGeometry relative="1" as="geometry">
            <mxPoint x="277" y="200" as="sourcePoint" />
          </mxGeometry>
        </mxCell>
        <mxCell id="OuwZTAwvk_KHiBmIs3wN-312" value="Add Items&lt;span style=&quot;background-color: initial;&quot;&gt;&amp;nbsp;to cart&lt;/span&gt;" style="ellipse;whiteSpace=wrap;html=1;" vertex="1" parent="OuwZTAwvk_KHiBmIs3wN-275">
          <mxGeometry x="200" y="180" width="120" height="35" as="geometry" />
        </mxCell>
        <mxCell id="OuwZTAwvk_KHiBmIs3wN-313" value="&amp;lt;&amp;lt;Extends&amp;gt;&amp;gt;" style="edgeStyle=none;rounded=0;orthogonalLoop=1;jettySize=auto;html=1;exitX=1;exitY=1;exitDx=0;exitDy=0;strokeColor=default;align=center;verticalAlign=middle;fontFamily=Helvetica;fontSize=11;fontColor=default;labelBackgroundColor=default;endArrow=classic;entryX=0.43;entryY=-0.022;entryDx=0;entryDy=0;entryPerimeter=0;dashed=1;" edge="1" parent="OuwZTAwvk_KHiBmIs3wN-275" source="OuwZTAwvk_KHiBmIs3wN-314" target="OuwZTAwvk_KHiBmIs3wN-315">
          <mxGeometry relative="1" as="geometry" />
        </mxCell>
        <mxCell id="OuwZTAwvk_KHiBmIs3wN-314" value="Add Items to Wishlist" style="ellipse;whiteSpace=wrap;html=1;" vertex="1" parent="OuwZTAwvk_KHiBmIs3wN-275">
          <mxGeometry x="90" y="300" width="150" height="35" as="geometry" />
        </mxCell>
        <mxCell id="OuwZTAwvk_KHiBmIs3wN-339" value="&amp;lt;&amp;lt;Include&amp;gt;&amp;gt;" style="edgeStyle=none;rounded=0;orthogonalLoop=1;jettySize=auto;html=1;exitX=1;exitY=0.5;exitDx=0;exitDy=0;entryX=0.01;entryY=0.756;entryDx=0;entryDy=0;strokeColor=default;align=center;verticalAlign=middle;fontFamily=Helvetica;fontSize=11;fontColor=default;labelBackgroundColor=default;endArrow=classic;dashed=1;entryPerimeter=0;" edge="1" parent="OuwZTAwvk_KHiBmIs3wN-275" source="OuwZTAwvk_KHiBmIs3wN-316" target="OuwZTAwvk_KHiBmIs3wN-315">
          <mxGeometry relative="1" as="geometry" />
        </mxCell>
        <mxCell id="OuwZTAwvk_KHiBmIs3wN-340" value="&amp;lt;&amp;lt;Extends&amp;gt;&amp;gt;" style="edgeStyle=none;rounded=0;orthogonalLoop=1;jettySize=auto;html=1;exitX=0.5;exitY=1;exitDx=0;exitDy=0;entryX=0.5;entryY=0;entryDx=0;entryDy=0;strokeColor=default;align=center;verticalAlign=middle;fontFamily=Helvetica;fontSize=11;fontColor=default;labelBackgroundColor=default;endArrow=classic;dashed=1;" edge="1" parent="OuwZTAwvk_KHiBmIs3wN-275" source="OuwZTAwvk_KHiBmIs3wN-317" target="OuwZTAwvk_KHiBmIs3wN-334">
          <mxGeometry relative="1" as="geometry" />
        </mxCell>
        <mxCell id="OuwZTAwvk_KHiBmIs3wN-341" value="&amp;lt;&amp;lt;Extends&amp;gt;&amp;gt;" style="edgeStyle=none;rounded=0;orthogonalLoop=1;jettySize=auto;html=1;exitX=0.25;exitY=-0.018;exitDx=0;exitDy=0;entryX=1;entryY=0.5;entryDx=0;entryDy=0;strokeColor=default;align=center;verticalAlign=middle;fontFamily=Helvetica;fontSize=11;fontColor=default;labelBackgroundColor=default;endArrow=classic;exitPerimeter=0;dashed=1;" edge="1" parent="OuwZTAwvk_KHiBmIs3wN-275" source="OuwZTAwvk_KHiBmIs3wN-317" target="OuwZTAwvk_KHiBmIs3wN-333">
          <mxGeometry relative="1" as="geometry" />
        </mxCell>
        <mxCell id="OuwZTAwvk_KHiBmIs3wN-317" value="Checkout cart/ make purchase" style="ellipse;whiteSpace=wrap;html=1;" vertex="1" parent="OuwZTAwvk_KHiBmIs3wN-275">
          <mxGeometry x="445" y="222.5" width="140" height="55" as="geometry" />
        </mxCell>
        <mxCell id="OuwZTAwvk_KHiBmIs3wN-320" value="Arrange purchase delivery" style="ellipse;whiteSpace=wrap;html=1;" vertex="1" parent="OuwZTAwvk_KHiBmIs3wN-275">
          <mxGeometry x="245" y="120" width="130" height="45" as="geometry" />
        </mxCell>
        <mxCell id="OuwZTAwvk_KHiBmIs3wN-321" style="rounded=0;orthogonalLoop=1;jettySize=auto;html=1;exitX=1;exitY=1;exitDx=0;exitDy=0;entryX=0.233;entryY=0.1;entryDx=0;entryDy=0;entryPerimeter=0;" edge="1" parent="OuwZTAwvk_KHiBmIs3wN-275" source="OuwZTAwvk_KHiBmIs3wN-310" target="OuwZTAwvk_KHiBmIs3wN-314">
          <mxGeometry relative="1" as="geometry" />
        </mxCell>
        <mxCell id="OuwZTAwvk_KHiBmIs3wN-322" style="rounded=0;orthogonalLoop=1;jettySize=auto;html=1;exitX=0.5;exitY=0;exitDx=0;exitDy=0;entryX=0.5;entryY=1;entryDx=0;entryDy=0;" edge="1" parent="OuwZTAwvk_KHiBmIs3wN-275" source="OuwZTAwvk_KHiBmIs3wN-326" target="OuwZTAwvk_KHiBmIs3wN-315">
          <mxGeometry relative="1" as="geometry" />
        </mxCell>
        <mxCell id="OuwZTAwvk_KHiBmIs3wN-323" style="rounded=0;orthogonalLoop=1;jettySize=auto;html=1;exitX=0;exitY=0;exitDx=0;exitDy=0;entryX=1;entryY=1;entryDx=0;entryDy=0;" edge="1" parent="OuwZTAwvk_KHiBmIs3wN-275" source="OuwZTAwvk_KHiBmIs3wN-326" target="OuwZTAwvk_KHiBmIs3wN-316">
          <mxGeometry relative="1" as="geometry" />
        </mxCell>
        <mxCell id="OuwZTAwvk_KHiBmIs3wN-324" style="rounded=0;orthogonalLoop=1;jettySize=auto;html=1;exitX=1;exitY=0;exitDx=0;exitDy=0;" edge="1" parent="OuwZTAwvk_KHiBmIs3wN-275" source="OuwZTAwvk_KHiBmIs3wN-326" target="OuwZTAwvk_KHiBmIs3wN-319">
          <mxGeometry relative="1" as="geometry" />
        </mxCell>
        <mxCell id="OuwZTAwvk_KHiBmIs3wN-325" style="rounded=0;orthogonalLoop=1;jettySize=auto;html=1;exitX=0;exitY=0.5;exitDx=0;exitDy=0;" edge="1" parent="OuwZTAwvk_KHiBmIs3wN-275" source="OuwZTAwvk_KHiBmIs3wN-326" target="OuwZTAwvk_KHiBmIs3wN-329">
          <mxGeometry relative="1" as="geometry" />
        </mxCell>
        <mxCell id="OuwZTAwvk_KHiBmIs3wN-328" style="rounded=0;orthogonalLoop=1;jettySize=auto;html=1;exitX=1;exitY=0.5;exitDx=0;exitDy=0;entryX=0;entryY=0.588;entryDx=0;entryDy=0;entryPerimeter=0;" edge="1" parent="OuwZTAwvk_KHiBmIs3wN-275" source="OuwZTAwvk_KHiBmIs3wN-326" target="OuwZTAwvk_KHiBmIs3wN-327">
          <mxGeometry relative="1" as="geometry" />
        </mxCell>
        <mxCell id="OuwZTAwvk_KHiBmIs3wN-330" value="&amp;lt;&amp;lt;Extends&amp;gt;&amp;gt;" style="edgeStyle=none;rounded=0;orthogonalLoop=1;jettySize=auto;html=1;strokeColor=default;align=center;verticalAlign=middle;fontFamily=Helvetica;fontSize=11;fontColor=default;labelBackgroundColor=default;endArrow=classic;dashed=1;exitX=1;exitY=0;exitDx=0;exitDy=0;" edge="1" parent="OuwZTAwvk_KHiBmIs3wN-275" source="OuwZTAwvk_KHiBmIs3wN-314" target="OuwZTAwvk_KHiBmIs3wN-312">
          <mxGeometry relative="1" as="geometry" />
        </mxCell>
        <mxCell id="OuwZTAwvk_KHiBmIs3wN-331" value="Query a product" style="ellipse;whiteSpace=wrap;html=1;" vertex="1" parent="OuwZTAwvk_KHiBmIs3wN-275">
          <mxGeometry x="10" y="370" width="110" height="35" as="geometry" />
        </mxCell>
        <mxCell id="OuwZTAwvk_KHiBmIs3wN-332" value="&amp;lt;&amp;lt;Extends&amp;gt;&amp;gt;" style="edgeStyle=none;rounded=0;orthogonalLoop=1;jettySize=auto;html=1;entryX=0.079;entryY=0.727;entryDx=0;entryDy=0;entryPerimeter=0;strokeColor=default;align=center;verticalAlign=middle;fontFamily=Helvetica;fontSize=11;fontColor=default;labelBackgroundColor=default;endArrow=classic;exitX=0.7;exitY=0;exitDx=0;exitDy=0;exitPerimeter=0;dashed=1;" edge="1" parent="OuwZTAwvk_KHiBmIs3wN-275" source="OuwZTAwvk_KHiBmIs3wN-315" target="OuwZTAwvk_KHiBmIs3wN-317">
          <mxGeometry relative="1" as="geometry" />
        </mxCell>
        <mxCell id="OuwZTAwvk_KHiBmIs3wN-333" value="Share to socials" style="ellipse;whiteSpace=wrap;html=1;" vertex="1" parent="OuwZTAwvk_KHiBmIs3wN-275">
          <mxGeometry x="255" y="12.5" width="110" height="45" as="geometry" />
        </mxCell>
        <mxCell id="OuwZTAwvk_KHiBmIs3wN-334" value="Review product" style="ellipse;whiteSpace=wrap;html=1;" vertex="1" parent="OuwZTAwvk_KHiBmIs3wN-275">
          <mxGeometry x="465" y="412.5" width="100" height="45" as="geometry" />
        </mxCell>
        <mxCell id="OuwZTAwvk_KHiBmIs3wN-335" value="&amp;lt;&amp;lt;Include&amp;gt;&amp;gt;" style="edgeStyle=none;rounded=0;orthogonalLoop=1;jettySize=auto;html=1;entryX=0.917;entryY=0.875;entryDx=0;entryDy=0;entryPerimeter=0;strokeColor=default;align=center;verticalAlign=middle;fontFamily=Helvetica;fontSize=11;fontColor=default;labelBackgroundColor=default;endArrow=classic;exitX=0;exitY=0;exitDx=0;exitDy=0;dashed=1;" edge="1" parent="OuwZTAwvk_KHiBmIs3wN-275" source="OuwZTAwvk_KHiBmIs3wN-317" target="OuwZTAwvk_KHiBmIs3wN-320">
          <mxGeometry relative="1" as="geometry" />
        </mxCell>
        <mxCell id="OuwZTAwvk_KHiBmIs3wN-337" value="&amp;lt;&amp;lt;Extends&amp;gt;&amp;gt;" style="edgeStyle=none;rounded=0;orthogonalLoop=1;jettySize=auto;html=1;exitX=0.2;exitY=0.873;exitDx=0;exitDy=0;entryX=0.642;entryY=-0.029;entryDx=0;entryDy=0;entryPerimeter=0;strokeColor=default;align=center;verticalAlign=middle;fontFamily=Helvetica;fontSize=11;fontColor=default;labelBackgroundColor=default;endArrow=classic;exitPerimeter=0;dashed=1;" edge="1" parent="OuwZTAwvk_KHiBmIs3wN-275" source="OuwZTAwvk_KHiBmIs3wN-317" target="OuwZTAwvk_KHiBmIs3wN-319">
          <mxGeometry relative="1" as="geometry" />
        </mxCell>
        <mxCell id="OuwZTAwvk_KHiBmIs3wN-326" value="Manage account" style="ellipse;whiteSpace=wrap;html=1;" vertex="1" parent="OuwZTAwvk_KHiBmIs3wN-275">
          <mxGeometry x="240" y="770" width="110" height="45" as="geometry" />
        </mxCell>
        <mxCell id="OuwZTAwvk_KHiBmIs3wN-329" value="Delete account" style="ellipse;whiteSpace=wrap;html=1;" vertex="1" parent="OuwZTAwvk_KHiBmIs3wN-275">
          <mxGeometry x="10" y="775" width="120" height="35" as="geometry" />
        </mxCell>
        <mxCell id="OuwZTAwvk_KHiBmIs3wN-316" value="Sign up" style="ellipse;whiteSpace=wrap;html=1;" vertex="1" parent="OuwZTAwvk_KHiBmIs3wN-275">
          <mxGeometry x="40" y="660" width="80" height="35" as="geometry" />
        </mxCell>
        <mxCell id="OuwZTAwvk_KHiBmIs3wN-315" value="Login" style="ellipse;whiteSpace=wrap;html=1;" vertex="1" parent="OuwZTAwvk_KHiBmIs3wN-275">
          <mxGeometry x="220" y="600" width="100" height="45" as="geometry" />
        </mxCell>
        <mxCell id="OuwZTAwvk_KHiBmIs3wN-319" value="Log a return" style="ellipse;whiteSpace=wrap;html=1;" vertex="1" parent="OuwZTAwvk_KHiBmIs3wN-275">
          <mxGeometry x="330" y="560" width="120" height="35" as="geometry" />
        </mxCell>
        <mxCell id="OuwZTAwvk_KHiBmIs3wN-327" value="Update details" style="ellipse;whiteSpace=wrap;html=1;" vertex="1" parent="OuwZTAwvk_KHiBmIs3wN-275">
          <mxGeometry x="450" y="675" width="90" height="45" as="geometry" />
        </mxCell>
        <mxCell id="OuwZTAwvk_KHiBmIs3wN-344" value="Registered customer" style="shape=umlActor;verticalLabelPosition=bottom;verticalAlign=top;html=1;outlineConnect=0;fontFamily=Helvetica;fontSize=11;fontColor=default;labelBackgroundColor=default;" vertex="1" parent="OuwZTAwvk_KHiBmIs3wN-275">
          <mxGeometry x="285" y="837.5" width="20" height="50" as="geometry" />
        </mxCell>
        <mxCell id="OuwZTAwvk_KHiBmIs3wN-349" style="edgeStyle=none;rounded=0;orthogonalLoop=1;jettySize=auto;html=1;exitX=0.5;exitY=0;exitDx=0;exitDy=0;exitPerimeter=0;entryX=0.5;entryY=1;entryDx=0;entryDy=0;strokeColor=default;align=center;verticalAlign=middle;fontFamily=Helvetica;fontSize=11;fontColor=default;labelBackgroundColor=default;endArrow=classic;" edge="1" parent="OuwZTAwvk_KHiBmIs3wN-275" source="OuwZTAwvk_KHiBmIs3wN-344" target="OuwZTAwvk_KHiBmIs3wN-326">
          <mxGeometry relative="1" as="geometry" />
        </mxCell>
        <mxCell id="OuwZTAwvk_KHiBmIs3wN-342" value="Unregistered/&lt;div style=&quot;line-height: 150%;&quot;&gt;registered&lt;/div&gt;&lt;div style=&quot;line-height: 150%;&quot;&gt;customer&lt;/div&gt;" style="shape=umlActor;verticalLabelPosition=bottom;verticalAlign=top;html=1;outlineConnect=0;fontFamily=Helvetica;fontSize=11;fontColor=default;labelBackgroundColor=default;" vertex="1" parent="1">
          <mxGeometry x="90" y="230" width="20" height="50" as="geometry" />
        </mxCell>
        <mxCell id="OuwZTAwvk_KHiBmIs3wN-351" style="edgeStyle=none;rounded=0;orthogonalLoop=1;jettySize=auto;html=1;exitX=0.5;exitY=0.5;exitDx=0;exitDy=0;exitPerimeter=0;entryX=1;entryY=0.5;entryDx=0;entryDy=0;strokeColor=default;align=center;verticalAlign=middle;fontFamily=Helvetica;fontSize=11;fontColor=default;labelBackgroundColor=default;endArrow=classic;" edge="1" parent="1" source="OuwZTAwvk_KHiBmIs3wN-348" target="OuwZTAwvk_KHiBmIs3wN-317">
          <mxGeometry relative="1" as="geometry" />
        </mxCell>
        <mxCell id="OuwZTAwvk_KHiBmIs3wN-348" value="Registered&amp;nbsp;&lt;div style=&quot;line-height: 150%;&quot;&gt;customer&lt;/div&gt;" style="shape=umlActor;verticalLabelPosition=bottom;verticalAlign=top;html=1;outlineConnect=0;fontFamily=Helvetica;fontSize=11;fontColor=default;labelBackgroundColor=default;" vertex="1" parent="1">
          <mxGeometry x="740" y="335" width="20" height="50" as="geometry" />
        </mxCell>
        <mxCell id="OuwZTAwvk_KHiBmIs3wN-352" style="edgeStyle=none;rounded=0;orthogonalLoop=1;jettySize=auto;html=1;exitX=0.5;exitY=0.5;exitDx=0;exitDy=0;exitPerimeter=0;entryX=0.018;entryY=0.344;entryDx=0;entryDy=0;entryPerimeter=0;strokeColor=default;align=center;verticalAlign=middle;fontFamily=Helvetica;fontSize=11;fontColor=default;labelBackgroundColor=default;endArrow=classic;" edge="1" parent="1" source="OuwZTAwvk_KHiBmIs3wN-342" target="OuwZTAwvk_KHiBmIs3wN-310">
          <mxGeometry relative="1" as="geometry" />
        </mxCell>
        <mxCell id="OuwZTAwvk_KHiBmIs3wN-355" value="Use Case Diagram" style="text;html=1;align=center;verticalAlign=middle;whiteSpace=wrap;rounded=0;fontFamily=Helvetica;fontSize=11;fontColor=default;labelBackgroundColor=default;" vertex="1" parent="1">
          <mxGeometry x="375" y="80" width="100" height="30" as="geometry" />
        </mxCell>
      </root>
    </mxGraphModel>
  </diagram>
</mxfile>
